HIERARCHY
ROOT hip
{
  OFFSET -0.102081 86.0187 0.0627041
  CHANNELS 6 Xposition Yposition Zposition Zrotation Xrotation Yrotation
  JOINT abdomen
  {
    OFFSET 0.00013566 7.24102 1.12653e-05
    CHANNELS 6 Xposition Yposition Zposition Zrotation Xrotation Yrotation
    JOINT chest
    {
      OFFSET 0.00112009 16.5522 2.09808e-05
      CHANNELS 6 Xposition Yposition Zposition Zrotation Xrotation Yrotation
      JOINT neck
      {
        OFFSET -9.77516e-05 34.2141 -0.000310898
        CHANNELS 6 Xposition Yposition Zposition Zrotation Xrotation Yrotation
        JOINT head
        {
          OFFSET 0 6.29235 0
          CHANNELS 6 Xposition Yposition Zposition Zrotation Xrotation Yrotation
          End Site
          {
            OFFSET 0 0 0
          }
        }
      }
      JOINT lCollar
      {
        OFFSET 4.06393 26.6115 -1.12345
        CHANNELS 6 Xposition Yposition Zposition Zrotation Xrotation Yrotation
        JOINT lShldr
        {
          OFFSET 14.1772 -1.52588e-05 0
          CHANNELS 6 Xposition Yposition Zposition Zrotation Xrotation Yrotation
          JOINT lForeArm
          {
            OFFSET 26.1234 -1.14441e-05 -1.52588e-05
            CHANNELS 6 Xposition Yposition Zposition Zrotation Xrotation Yrotation
            JOINT lHand
            {
              OFFSET 27.7188 0 0
              CHANNELS 6 Xposition Yposition Zposition Zrotation Xrotation Yrotation
              JOINT lThumb1
              {
                OFFSET 2.29793 -0.468453 1.83133
                CHANNELS 6 Xposition Yposition Zposition Zrotation Xrotation Yrotation
                JOINT lThumb2
                {
                  OFFSET 5.29528 0 0
                  CHANNELS 6 Xposition Yposition Zposition Zrotation Xrotation Yrotation
                  JOINT lThumb3
                  {
                    OFFSET 3.01811 0 0
                    CHANNELS 6 Xposition Yposition Zposition Zrotation Xrotation Yrotation
                    End Site
                    {
                      OFFSET 0 0 0
                    }
                  }
                }
              }
              JOINT lIndex1
              {
                OFFSET 9.37932 0.299065 2.59235
                CHANNELS 6 Xposition Yposition Zposition Zrotation Xrotation Yrotation
                JOINT lIndex2
                {
                  OFFSET 4.34608 0 0
                  CHANNELS 6 Xposition Yposition Zposition Zrotation Xrotation Yrotation
                  JOINT lIndex3
                  {
                    OFFSET 2.16661 0 0
                    CHANNELS 6 Xposition Yposition Zposition Zrotation Xrotation Yrotation
                    End Site
                    {
                      OFFSET 0 0 0
                    }
                  }
                }
              }
              JOINT lMid1
              {
                OFFSET 9.47694 0.837639 0.29467
                CHANNELS 6 Xposition Yposition Zposition Zrotation Xrotation Yrotation
                JOINT lMid2
                {
                  OFFSET 4.77206 0 0
                  CHANNELS 6 Xposition Yposition Zposition Zrotation Xrotation Yrotation
                  JOINT lMid3
                  {
                    OFFSET 2.87216 0 0
                    CHANNELS 6 Xposition Yposition Zposition Zrotation Xrotation Yrotation
                    End Site
                    {
                      OFFSET 0 0 0
                    }
                  }
                }
              }
              JOINT lRing1
              {
                OFFSET 8.65864 1.01763 -1.70161
                CHANNELS 6 Xposition Yposition Zposition Zrotation Xrotation Yrotation
                JOINT lRing2
                {
                  OFFSET 4.54612 0 0
                  CHANNELS 6 Xposition Yposition Zposition Zrotation Xrotation Yrotation
                  JOINT lRing3
                  {
                    OFFSET 2.50604 0 0
                    CHANNELS 6 Xposition Yposition Zposition Zrotation Xrotation Yrotation
                    End Site
                    {
                      OFFSET 0 0 0
                    }
                  }
                }
              }
              JOINT lPinky1
              {
                OFFSET 7.69006 0.661797 -3.90961
                CHANNELS 6 Xposition Yposition Zposition Zrotation Xrotation Yrotation
                JOINT lPinky2
                {
                  OFFSET 3.21194 0 0
                  CHANNELS 6 Xposition Yposition Zposition Zrotation Xrotation Yrotation
                  JOINT lPinky3
                  {
                    OFFSET 1.92396 0 0
                    CHANNELS 6 Xposition Yposition Zposition Zrotation Xrotation Yrotation
                    End Site
                    {
                      OFFSET 0 0 0
                    }
                  }
                }
              }
            }
          }
        }
      }
      JOINT rCollar
      {
        OFFSET -4.06772 26.6109 -1.12342
        CHANNELS 6 Xposition Yposition Zposition Zrotation Xrotation Yrotation
        JOINT rShldr
        {
          OFFSET -14.1772 -1.52588e-05 0
          CHANNELS 6 Xposition Yposition Zposition Zrotation Xrotation Yrotation
          JOINT rForeArm
          {
            OFFSET -26.1234 0 0
            CHANNELS 6 Xposition Yposition Zposition Zrotation Xrotation Yrotation
            JOINT rHand
            {
              OFFSET -27.7188 0 0
              CHANNELS 6 Xposition Yposition Zposition Zrotation Xrotation Yrotation
              JOINT rThumb1
              {
                OFFSET -2.29792 -0.468455 1.83133
                CHANNELS 6 Xposition Yposition Zposition Zrotation Xrotation Yrotation
                JOINT rThumb2
                {
                  OFFSET -5.29528 0 0
                  CHANNELS 6 Xposition Yposition Zposition Zrotation Xrotation Yrotation
                  JOINT rThumb3
                  {
                    OFFSET -3.01811 0 0
                    CHANNELS 6 Xposition Yposition Zposition Zrotation Xrotation Yrotation
                    End Site
                    {
                      OFFSET 0 0 0
                    }
                  }
                }
              }
              JOINT rIndex1
              {
                OFFSET -9.37932 0.299061 2.59235
                CHANNELS 6 Xposition Yposition Zposition Zrotation Xrotation Yrotation
                JOINT rIndex2
                {
                  OFFSET -4.3461 -1.52588e-05 0
                  CHANNELS 6 Xposition Yposition Zposition Zrotation Xrotation Yrotation
                  JOINT rIndex3
                  {
                    OFFSET -2.1666 0 0
                    CHANNELS 6 Xposition Yposition Zposition Zrotation Xrotation Yrotation
                    End Site
                    {
                      OFFSET 0 0 0
                    }
                  }
                }
              }
              JOINT rMid1
              {
                OFFSET -9.47695 0.837639 0.294662
                CHANNELS 6 Xposition Yposition Zposition Zrotation Xrotation Yrotation
                JOINT rMid2
                {
                  OFFSET -4.77205 0 0
                  CHANNELS 6 Xposition Yposition Zposition Zrotation Xrotation Yrotation
                  JOINT rMid3
                  {
                    OFFSET -2.87216 -3.05176e-05 0
                    CHANNELS 6 Xposition Yposition Zposition Zrotation Xrotation Yrotation
                    End Site
                    {
                      OFFSET 0 0 0
                    }
                  }
                }
              }
              JOINT rRing1
              {
                OFFSET -8.65865 1.01764 -1.70161
                CHANNELS 6 Xposition Yposition Zposition Zrotation Xrotation Yrotation
                JOINT rRing2
                {
                  OFFSET -4.54611 0 0
                  CHANNELS 6 Xposition Yposition Zposition Zrotation Xrotation Yrotation
                  JOINT rRing3
                  {
                    OFFSET -2.50603 0 0
                    CHANNELS 6 Xposition Yposition Zposition Zrotation Xrotation Yrotation
                    End Site
                    {
                      OFFSET 0 0 0
                    }
                  }
                }
              }
              JOINT rPinky1
              {
                OFFSET -7.69005 0.661799 -3.90961
                CHANNELS 6 Xposition Yposition Zposition Zrotation Xrotation Yrotation
                JOINT rPinky2
                {
                  OFFSET -3.21192 0 0
                  CHANNELS 6 Xposition Yposition Zposition Zrotation Xrotation Yrotation
                  JOINT rPinky3
                  {
                    OFFSET -1.92396 0 0
                    CHANNELS 6 Xposition Yposition Zposition Zrotation Xrotation Yrotation
                    End Site
                    {
                      OFFSET 0 0 0
                    }
                  }
                }
              }
            }
          }
        }
      }
    }
  }
  JOINT lThigh
  {
    OFFSET 8.73787 -0.00289154 0.000543416
    CHANNELS 6 Xposition Yposition Zposition Zrotation Xrotation Yrotation
    JOINT lShin
    {
      OFFSET 0 -46.6676 0
      CHANNELS 6 Xposition Yposition Zposition Zrotation Xrotation Yrotation
      JOINT lFoot
      {
        OFFSET 0 -40.1476 0
        CHANNELS 6 Xposition Yposition Zposition Zrotation Xrotation Yrotation
        JOINT lToes
        {
          OFFSET 0 -8.8846 14.2294
          CHANNELS 6 Xposition Yposition Zposition Zrotation Xrotation Yrotation
          End Site
          {
            OFFSET 0 0 0
          }
        }
      }
    }
  }
  JOINT rThigh
  {
    OFFSET -8.73786 0.00291443 -0.000538051
    CHANNELS 6 Xposition Yposition Zposition Zrotation Xrotation Yrotation
    JOINT rShin
    {
      OFFSET 0 -46.6676 0
      CHANNELS 6 Xposition Yposition Zposition Zrotation Xrotation Yrotation
      JOINT rFoot
      {
        OFFSET 0 -40.1476 0
        CHANNELS 6 Xposition Yposition Zposition Zrotation Xrotation Yrotation
        JOINT rToes
        {
          OFFSET 0 -8.8846 14.2294
          CHANNELS 6 Xposition Yposition Zposition Zrotation Xrotation Yrotation
          End Site
          {
            OFFSET 0 0 0
          }
        }
      }
    }
  }
}
MOTION
Frames:	4
Frame Time:	0.0333333
-0.356245 86.0035 -0.0836338 -2.55979 0.342529 -36.5664 0.000239134 7.2412 2.28882e-05 -0.643189 4.02848 -0.981888 0.00121021 16.5528 0.000107765 -0.580838 13.6055 -2.88761 -9.44138e-05 34.2145 -0.000164032 -0.84446 26.1127 1.27107 -2.86102e-06 6.29236 -1.52588e-05 -10.2081 -28.9321 40.5631 4.06393 26.6115 -1.12344 -7.26408 -5.16321 4.4207 14.1772 -1.52588e-05 -1.90735e-06 -55.6597 31.7586 -64.3409 26.1234 -7.62939e-06 -7.6294e-06 4.11766e-05 -5.14387e-05 -100.22 27.7188 1.42109e-14 1.42109e-14 -4.95809 -37.0496 -11.5999 2.29791 -0.46845 1.83132 60.5591 59.8115 -94.8729 5.29527 -3.57628e-06 -7.62939e-06 -31.6287 1.78783 13.5283 3.01812 -3.8147e-06 -3.8147e-06 -9.29879 4.86508 11.9855 9.3793 0.299063 2.59235 -9.83703 2.83869 -2.04582 4.34608 0 -7.10543e-15 -7.26379 5.11663 12.1127 2.1666 3.8147e-06 -7.6294e-06 -19.6181 -0.585644 3.81474 9.47694 0.837644 0.294674 -8.3249 6.92694 2.60429 4.77206 3.8147e-06 0 -25.2631 1.27583 15.7985 2.87216 -7.6294e-06 -7.62939e-06 -42.8503 -5.38856 11.9082 8.65864 1.01764 -1.70162 -10.3118 -9.43781 14.9148 4.54611 -3.8147e-06 0 -15.9269 1.27303 7.56639 2.50604 1.14441e-05 7.62939e-06 -24.2425 -1.28054 4.61476 7.69006 0.6618 -3.90961 -12.7396 -8.19471 22.874 3.21193 3.8147e-06 7.6294e-06 -51.1496 -7.95635 12.2934 1.92397 -1.42109e-14 7.62939e-06 -72.2038 -16.6404 20.9758 -4.06772 26.6109 -1.12341 7.93023 -5.02423 -3.00244 -14.1772 1.52588e-05 1.90735e-06 54.2513 -4.50292 57.975 -26.1234 0 -7.6294e-06 -1.81375e-06 1.0364e-05 109.853 -27.7188 1.52588e-05 1.90735e-06 -25.8125 9.07129 33.2351 -2.29793 -0.468451 1.83133 -60.559 59.8116 94.8729 -5.29527 1.42109e-14 1.42109e-14 31.6286 1.78785 -13.5283 -3.01812 -7.62939e-06 3.8147e-06 9.29882 4.86512 -11.9855 -9.37932 0.299055 2.59236 -22.4207 -2.27892 5.14269 -4.34608 -1.52588e-05 7.6294e-06 82.9788 -11.3023 -13.0739 -2.1666 0 0 32.4202 -1.98993 -6.38552 -9.47693 0.837633 0.294678 -12.53 6.19989 -9.98237 -4.77203 -5.72205e-06 3.8147e-06 87.2741 -15.4094 -16.2418 -2.87217 -2.84217e-14 -1.90735e-06 44.7845 -4.46783 -12.7933 -8.65863 1.01763 -1.7016 26.7007 -10.5912 -18.8191 -4.54612 0 -3.8147e-06 80.3111 -7.53548 -8.92565 -2.50603 -2.84217e-14 -3.8147e-06 47.9318 -2.94347 -7.77336 -7.69005 0.661797 -3.9096 38.3555 -32.618 -10.4105 -3.21192 2.84217e-14 -3.8147e-06 38.6771 -4.70146 -13.3432 -1.92397 -3.05176e-05 5.32907e-15 39.9369 -4.93891 -15.3353 8.73787 -0.00289917 0.000544548 33.3572 -23.7712 44.1716 -3.8147e-06 -46.6676 7.6294e-06 -5.71582e-06 50.9086 3.04649e-05 3.8147e-06 -40.1476 -2.09808e-05 -6.24111 -11.3351 11.2024 1.90735e-06 -8.8846 14.2294 0.000156561 1.96368e-05 -3.14587e-05 -8.73786 0.00292206 -0.000538349 -17.2169 -15.075 -15.9384 -7.62939e-06 -46.6676 1.90735e-06 1.07309e-05 46.2847 -1.85314e-06 -5.72205e-06 -40.1476 -4.52995e-06 14.2227 -26.6219 0.877806 5.72205e-06 -8.88459 14.2294 -2.17712e-05 -2.56132e-06 4.80648e-05 
-0.364434 86.082 -0.0674076 -2.49992 0.375557 -36.5772 0.000241518 7.24118 2.38419e-05 -0.648381 3.99903 -0.993252 0.00121307 16.5527 9.15527e-05 -0.511986 13.3798 -2.90894 -9.15527e-05 34.2145 -0.000173569 -0.840616 26.1572 1.2702 -1.77636e-15 6.29236 -1.42109e-14 -10.208 -28.8235 40.5566 4.06394 26.6115 -1.12344 -7.10559 -5.15584 4.47366 14.1772 -3.05176e-05 5.72205e-06 -55.8057 31.8732 -64.3507 26.1234 -1.52588e-05 -7.6294e-06 -1.88703e-05 -4.04993e-05 -100.192 27.7188 -1.52588e-05 1.14441e-05 -4.96374 -37.2164 -11.5662 2.29793 -0.468452 1.83133 60.5591 59.8115 -94.8729 5.29527 -4.52995e-06 -1.42109e-14 -31.6287 1.78784 13.5283 3.0181 7.10542e-15 -3.8147e-06 -9.2988 4.86507 11.9855 9.3793 0.299061 2.59236 -9.83703 2.83869 -2.04582 4.34607 3.8147e-06 -7.6294e-06 -7.26376 5.11663 12.1127 2.16661 0 7.6294e-06 -19.6182 -0.585631 3.81474 9.47694 0.837642 0.294678 -8.32096 6.84113 2.60382 4.77206 0 7.6294e-06 -25.2631 1.27582 15.7985 2.87216 -7.6294e-06 -1.52588e-05 -42.8503 -5.38856 11.9082 8.65864 1.01763 -1.70161 -10.3118 -9.43782 14.9148 4.54609 -7.62939e-06 -7.6294e-06 -15.9269 1.27303 7.56641 2.50603 7.62939e-06 2.28882e-05 -24.2426 -1.28053 4.61475 7.69004 0.661798 -3.9096 -12.7396 -8.19473 22.874 3.21193 7.62939e-06 0 -51.1496 -7.95635 12.2935 1.92397 -1.42109e-14 -1.42109e-14 -72.2038 -16.6404 20.9758 -4.06771 26.6109 -1.12342 7.62126 -5.01516 -3.08283 -14.1772 2.84217e-14 0 54.3321 -4.32468 57.8999 -26.1234 1.42109e-14 1.42109e-14 -1.34326e-05 -1.03985e-05 109.922 -27.7188 7.62939e-06 -7.6294e-06 -25.843 8.83263 33.0931 -2.29793 -0.468456 1.83133 -60.559 59.8116 94.8729 -5.29527 0 -7.62939e-06 31.6286 1.78783 -13.5283 -3.0181 1.42109e-14 1.42109e-14 9.29882 4.86513 -11.9855 -9.37932 0.299055 2.59235 -22.4207 -2.27894 5.14271 -4.34608 -1.14441e-05 0 82.9788 -11.3023 -13.074 -2.16661 1.52588e-05 -3.8147e-06 32.4202 -1.98995 -6.38552 -9.47695 0.837637 0.29467 -12.53 6.19988 -9.98237 -4.77205 -1.90735e-06 -3.8147e-06 87.2741 -15.4094 -16.2418 -2.87216 -1.52588e-05 -1.90735e-06 44.7845 -4.46782 -12.7933 -8.65863 1.01763 -1.70161 26.7006 -10.5912 -18.8191 -4.54612 -2.84217e-14 0 80.3111 -7.53548 -8.92564 -2.50603 1.52588e-05 -1.90735e-06 47.9318 -2.94347 -7.77338 -7.69005 0.661793 -3.9096 38.3555 -32.618 -10.4104 -3.21193 -2.84217e-14 3.55271e-15 38.6771 -4.70147 -13.3432 -1.92397 0 -3.8147e-06 39.9369 -4.93891 -15.3353 8.73786 -0.0029068 0.000545263 33.2939 -23.716 44.2119 -3.8147e-06 -46.6676 -1.52588e-05 3.1145e-06 50.6721 2.96376e-05 -3.8147e-06 -40.1476 -1.90735e-05 -6.21792 -11.24 11.2017 3.8147e-06 -8.8846 14.2294 0.000151918 2.63603e-05 -2.52989e-05 -8.73786 0.00289917 -0.000538826 -17.1809 -15.0471 -15.965 1.90735e-06 -46.6676 0 2.0264e-05 46.0865 -2.33886e-05 -9.53674e-06 -40.1476 -1.43051e-06 14.2257 -26.5114 0.880458 7.6294e-06 -8.88459 14.2294 -3.23367e-05 5.97641e-06 5.65625e-05 
-0.372518 86.1608 -0.0513214 -2.43956 0.408942 -36.5879 0.000243664 7.24117 2.49147e-05 -0.653309 3.96903 -1.00393 0.00121546 16.5526 8.29697e-05 -0.444314 13.156 -2.9297 -9.34601e-05 34.2145 -0.000164032 -0.836749 26.2017 1.26908 4.76837e-07 6.29236 -7.62939e-06 -10.2045 -28.7219 40.5467 4.06393 26.6115 -1.12343 -6.95268 -5.1486 4.52574 14.1772 2.84217e-14 -1.90735e-06 -56.0055 31.9599 -64.2973 26.1234 0 7.62939e-06 4.2646e-05 -3.51013e-05 -100.192 27.7188 -1.14441e-05 -3.8147e-06 -4.99171 -37.3327 -11.5082 2.29793 -0.468452 1.83133 60.5591 59.8115 -94.873 5.29526 0 1.42109e-14 -31.6286 1.78783 13.5283 3.01811 -3.8147e-06 -3.8147e-06 -9.2988 4.86508 11.9855 9.37931 0.299065 2.59236 -9.83702 2.83869 -2.04583 4.34608 7.10543e-15 -1.14441e-05 -7.26379 5.11663 12.1127 2.16661 3.8147e-06 0 -19.6181 -0.585641 3.81473 9.47693 0.837647 0.294678 -8.31703 6.75528 2.60335 4.77206 0 -3.8147e-06 -25.2631 1.27582 15.7985 2.87215 -7.6294e-06 0 -42.8503 -5.38856 11.9082 8.65865 1.01764 -1.7016 -10.3118 -9.43781 14.9148 4.54611 -9.53674e-06 -7.62939e-06 -15.9269 1.27303 7.56639 2.50602 0 -7.62939e-06 -24.2425 -1.28054 4.61475 7.69005 0.661799 -3.9096 -12.7396 -8.19472 22.874 3.21192 7.6294e-06 0 -51.1496 -7.95634 12.2935 1.92397 0 7.62939e-06 -72.2038 -16.6404 20.9758 -4.06772 26.6109 -1.12341 7.32285 -5.00612 -3.16374 -14.1772 -1.52588e-05 1.90735e-06 54.4222 -4.15765 57.824 -26.1234 1.42109e-14 0 -2.75786e-06 1.56488e-05 109.99 -27.7188 2.28882e-05 -1.90735e-06 -25.8582 8.62401 32.9633 -2.29793 -0.468453 1.83133 -60.559 59.8116 94.8729 -5.29526 1.42109e-14 7.62939e-06 31.6286 1.78786 -13.5284 -3.01811 7.62939e-06 -1.14441e-05 9.29881 4.86513 -11.9855 -9.3793 0.299057 2.59236 -22.4207 -2.27893 5.14273 -4.34607 -7.62939e-06 0 82.9788 -11.3023 -13.0739 -2.1666 1.52588e-05 -1.42109e-14 32.4202 -1.98994 -6.38553 -9.47694 0.837639 0.29467 -12.53 6.19989 -9.98237 -4.77205 -1.90735e-06 7.62939e-06 87.2741 -15.4094 -16.2418 -2.87216 -2.84217e-14 -3.8147e-06 44.7844 -4.46781 -12.7933 -8.65863 1.01763 -1.70161 26.7006 -10.5912 -18.8191 -4.54611 -7.6294e-06 -5.72205e-06 80.3111 -7.53549 -8.92563 -2.50603 0 1.77636e-15 47.9318 -2.94347 -7.77339 -7.69005 0.661797 -3.90961 38.3555 -32.618 -10.4105 -3.21191 -2.84217e-14 -3.8147e-06 38.6771 -4.70146 -13.3431 -1.92397 0 0 39.9369 -4.93892 -15.3353 8.73787 -0.00289917 0.000544191 33.2302 -23.6607 44.2513 1.90735e-06 -46.6676 -7.10543e-15 -2.69234e-06 50.4361 3.28406e-05 3.8147e-06 -40.1476 -9.53674e-06 -6.19532 -11.1446 11.2005 9.53674e-07 -8.8846 14.2294 0.000149144 3.47379e-05 -2.01921e-05 -8.73786 0.00289917 -0.000538468 -17.1463 -15.0187 -15.9921 -5.72205e-06 -46.6676 1.90735e-06 4.43074e-06 45.8911 -7.35986e-06 1.90735e-06 -40.1476 -4.52995e-06 14.2285 -26.4026 0.883257 1.90735e-06 -8.88459 14.2294 -1.76091e-05 1.4941e-06 5.38745e-05 
-0.380484 86.2398 -0.0353938 -2.37877 0.442636 -36.5985 0.00024724 7.24117 2.3365e-05 -0.657938 3.93851 -1.01386 0.00122356 16.5525 6.81877e-05 -0.377914 12.9343 -2.94987 -8.96454e-05 34.2145 -0.000175476 -0.832881 26.2461 1.26771 4.76837e-07 6.29236 -1.42109e-14 -10.1982 -28.6267 40.5335 4.06394 26.6115 -1.12345 -6.8035 -5.14132 4.57661 14.1772 -1.52588e-05 -1.90735e-06 -56.2549 32.0207 -64.1915 26.1234 -1.52588e-05 -1.52588e-05 -2.90176e-06 -3.2469e-05 -100.214 27.7188 -1.90735e-05 1.90735e-05 -5.04027 -37.409 -11.4307 2.29794 -0.468458 1.83133 60.559 59.8115 -94.8729 5.29528 7.15255e-07 0 -31.6287 1.78785 13.5283 3.01812 -3.8147e-06 -7.6294e-06 -9.29879 4.86507 11.9855 9.37931 0.299059 2.59236 -9.83703 2.83868 -2.04582 4.3461 0 1.52588e-05 -7.26379 5.11664 12.1127 2.1666 0 -1.52588e-05 -19.6181 -0.585656 3.81474 9.47694 0.837635 0.294674 -8.3131 6.66923 2.6029 4.77205 0 -1.14441e-05 -25.2631 1.27582 15.7985 2.87217 0 7.62939e-06 -42.8503 -5.38856 11.9082 8.65866 1.01763 -1.70161 -10.3118 -9.43781 14.9148 4.54611 -5.72204e-06 -7.62939e-06 -15.9269 1.27303 7.56639 2.50603 0 -1.42108e-14 -24.2425 -1.28054 4.61474 7.69005 0.661793 -3.9096 -12.7396 -8.19473 22.874 3.21193 7.62939e-06 -2.84217e-14 -51.1496 -7.95633 12.2935 1.92397 0 7.62939e-06 -72.2038 -16.6404 20.9758 -4.06771 26.6109 -1.12342 7.05173 -4.99795 -3.24236 -14.1772 2.84217e-14 -3.55271e-15 54.5241 -4.0139 57.7497 -26.1234 -7.62939e-06 0 -9.24761e-07 5.23128e-06 110.05 -27.7188 1.52588e-05 1.90735e-06 -25.8425 8.4677 32.8559 -2.29794 -0.468456 1.83132 -60.559 59.8116 94.8729 -5.29528 7.6294e-06 -1.42109e-14 31.6286 1.78783 -13.5284 -3.01811 -1.42109e-14 -7.6294e-06 9.29882 4.86513 -11.9855 -9.37931 0.299055 2.59235 -22.4207 -2.27894 5.14271 -4.34611 -1.52588e-05 1.42109e-14 82.9788 -11.3023 -13.074 -2.1666 -1.52588e-05 -7.10543e-15 32.4202 -1.98995 -6.38553 -9.47693 0.837635 0.294662 -12.53 6.19988 -9.98239 -4.77207 -1.90735e-06 7.10543e-15 87.2741 -15.4093 -16.2418 -2.87216 -1.52588e-05 -3.8147e-06 44.7844 -4.46783 -12.7933 -8.65863 1.01764 -1.70161 26.7006 -10.5912 -18.8191 -4.54611 -7.6294e-06 -3.8147e-06 80.3111 -7.53547 -8.92565 -2.50603 0 -1.90735e-06 47.9318 -2.94347 -7.77336 -7.69004 0.661793 -3.90961 38.3555 -32.618 -10.4104 -3.21192 -1.52588e-05 3.8147e-06 38.6771 -4.70147 -13.3432 -1.92397 -1.52588e-05 -3.8147e-06 39.9369 -4.93891 -15.3353 8.73787 -0.0029068 0.000542998 33.1659 -23.6053 44.2897 -1.90735e-06 -46.6676 -3.8147e-06 7.33857e-06 50.2007 2.26748e-05 1.90735e-06 -40.1476 -1.52588e-05 -6.1734 -11.049 11.1986 2.86102e-06 -8.8846 14.2294 0.000145515 1.8196e-05 -2.2156e-05 -8.73786 0.00289917 -0.000537515 -17.1132 -14.9898 -16.0195 1.90735e-06 -46.6676 3.8147e-06 4.03223e-05 45.6986 -3.60612e-05 -1.14441e-05 -40.1476 -1.69277e-05 14.2313 -26.2957 0.886165 5.72205e-06 -8.8846 14.2294 -2.8388e-05 5.12264e-06 4.2602e-05 
